<svg width="274" height="250" viewBox="0 0 274 250" fill="none" xmlns="http://www.w3.org/2000/svg">
<path fill-rule="evenodd" clip-rule="evenodd" d="M133.395 249.066C110.637 248.615 87.8783 243.21 67.5987 232.842C48.8964 223.379 32.222 209.859 20.0543 192.959C7.21053 174.933 0 153.301 0 130.994V89.3078V39.7355V15.8506C0 5.26015 10.5905 -1.95038 20.2796 2.10554L71.6546 22.8335C75.0345 24.1855 78.8651 24.4108 82.2451 23.0589C98.9194 16.7497 117.396 13.1444 137 13.1444C156.604 13.1444 175.081 16.5243 191.755 23.0589C195.135 24.4108 198.965 24.1855 202.345 22.8335L253.72 1.4273C263.412 -2.4033 274 4.58191 274 15.1724V32.5227V82.3204V128.062C274 152.175 266.564 175.381 252.145 194.762C239.525 211.661 222.397 225.181 203.472 234.194C182.742 244.109 159.984 249.066 137 249.066H133.395ZM208 114.218C208 101.825 199.416 80.2183 187.023 80.2183C174.63 80.2183 165 101.602 165 114.218C165 126.611 176.107 144.218 188.5 144.218C200.893 144.218 208 126.611 208 114.218ZM110 114.218C110 101.825 99.3701 80.2183 86.977 80.2183C74.5839 80.2183 67.5987 101.602 67.5987 114.218C67.5987 126.611 74.5839 144.218 86.977 144.218C99.3701 144.218 110 126.611 110 114.218ZM199 173C199 173 175.84 185.403 101 184.5C85.7838 184.316 108.92 205.754 124.125 206.357C147.745 207.293 181.498 198.83 199 173Z" fill="url(#paint0_linear_1_54)"/>
<defs>
<linearGradient id="paint0_linear_1_54" x1="137" y1="0.365723" x2="137" y2="249.066" gradientUnits="userSpaceOnUse">
<stop stop-color="white"/>
<stop offset="1" stop-color="#7AFFA7"/>
</linearGradient>
</defs>
</svg>
